<svg width="40" height="40" viewBox="0 0 40 40" fill="none" xmlns="http://www.w3.org/2000/svg">
<g filter="url(#filter0_i_21_94)">
<path d="M20 3.33334C10.795 3.33334 3.33331 10.795 3.33331 20C3.33331 28.3183 9.42831 35.2133 17.3966 36.465V24.8167H13.1633V20H17.3966V16.3283C17.3966 12.1517 19.8833 9.84501 23.6916 9.84501C25.515 9.84501 27.4216 10.17 27.4216 10.17V14.27H25.3216C23.25 14.27 22.605 15.555 22.605 16.8733V20H27.2266L26.4883 24.8167H22.605V36.465C30.5716 35.215 36.6666 28.3167 36.6666 20C36.6666 10.795 29.205 3.33334 20 3.33334Z" fill="#16A0EE"/>
</g>
<defs>
<filter id="filter0_i_21_94" x="3.33331" y="3.33334" width="33.3333" height="37.1317" filterUnits="userSpaceOnUse" color-interpolation-filters="sRGB">
<feFlood flood-opacity="0" result="BackgroundImageFix"/>
<feBlend mode="normal" in="SourceGraphic" in2="BackgroundImageFix" result="shape"/>
<feColorMatrix in="SourceAlpha" type="matrix" values="0 0 0 0 0 0 0 0 0 0 0 0 0 0 0 0 0 0 127 0" result="hardAlpha"/>
<feOffset dy="4"/>
<feGaussianBlur stdDeviation="2"/>
<feComposite in2="hardAlpha" operator="arithmetic" k2="-1" k3="1"/>
<feColorMatrix type="matrix" values="0 0 0 0 0 0 0 0 0 0 0 0 0 0 0 0 0 0 0.35 0"/>
<feBlend mode="normal" in2="shape" result="effect1_innerShadow_21_94"/>
</filter>
</defs>
</svg>
