<svg width="40" height="40" viewBox="0 0 40 40" fill="none" xmlns="http://www.w3.org/2000/svg">
<path d="M20 3.33334C24.5283 3.33334 25.0933 3.35001 26.87 3.43334C28.645 3.51668 29.8533 3.79501 30.9166 4.20834C32.0166 4.63168 32.9433 5.20501 33.87 6.13001C34.7175 6.96317 35.3732 7.97099 35.7916 9.08334C36.2033 10.145 36.4833 11.355 36.5667 13.13C36.645 14.9067 36.6666 15.4717 36.6666 20C36.6666 24.5283 36.65 25.0933 36.5667 26.87C36.4833 28.645 36.2033 29.8533 35.7916 30.9167C35.3744 32.0296 34.7185 33.0377 33.87 33.87C33.0366 34.7172 32.0288 35.3729 30.9166 35.7917C29.855 36.2033 28.645 36.4833 26.87 36.5667C25.0933 36.645 24.5283 36.6667 20 36.6667C15.4716 36.6667 14.9066 36.65 13.13 36.5667C11.355 36.4833 10.1466 36.2033 9.08331 35.7917C7.97052 35.3741 6.96253 34.7183 6.12998 33.87C5.28232 33.037 4.62653 32.0291 4.20831 30.9167C3.79498 29.855 3.51665 28.645 3.43331 26.87C3.35498 25.0933 3.33331 24.5283 3.33331 20C3.33331 15.4717 3.34998 14.9067 3.43331 13.13C3.51665 11.3533 3.79498 10.1467 4.20831 9.08334C4.62537 7.97031 5.28132 6.96221 6.12998 6.13001C6.96276 5.28206 7.97069 4.62623 9.08331 4.20834C10.1466 3.79501 11.3533 3.51668 13.13 3.43334C14.9066 3.35501 15.4716 3.33334 20 3.33334ZM20 11.6667C17.7898 11.6667 15.6702 12.5447 14.1074 14.1075C12.5446 15.6703 11.6666 17.7899 11.6666 20C11.6666 22.2101 12.5446 24.3298 14.1074 25.8926C15.6702 27.4554 17.7898 28.3333 20 28.3333C22.2101 28.3333 24.3297 27.4554 25.8925 25.8926C27.4553 24.3298 28.3333 22.2101 28.3333 20C28.3333 17.7899 27.4553 15.6703 25.8925 14.1075C24.3297 12.5447 22.2101 11.6667 20 11.6667ZM30.8333 11.25C30.8333 10.6975 30.6138 10.1676 30.2231 9.77687C29.8324 9.38617 29.3025 9.16668 28.75 9.16668C28.1974 9.16668 27.6675 9.38617 27.2768 9.77687C26.8861 10.1676 26.6666 10.6975 26.6666 11.25C26.6666 11.8025 26.8861 12.3324 27.2768 12.7231C27.6675 13.1139 28.1974 13.3333 28.75 13.3333C29.3025 13.3333 29.8324 13.1139 30.2231 12.7231C30.6138 12.3324 30.8333 11.8025 30.8333 11.25ZM20 15C21.3261 15 22.5978 15.5268 23.5355 16.4645C24.4732 17.4022 25 18.6739 25 20C25 21.3261 24.4732 22.5979 23.5355 23.5355C22.5978 24.4732 21.3261 25 20 25C18.6739 25 17.4021 24.4732 16.4644 23.5355C15.5268 22.5979 15 21.3261 15 20C15 18.6739 15.5268 17.4022 16.4644 16.4645C17.4021 15.5268 18.6739 15 20 15Z" fill="#1C645B"/>
</svg>
