<svg width="40" height="40" viewBox="0 0 40 40" fill="none" xmlns="http://www.w3.org/2000/svg">
<path d="M20 36.6667C10.795 36.6667 3.33331 29.205 3.33331 20C3.33331 10.795 10.795 3.33334 20 3.33334C29.205 3.33334 36.6666 10.795 36.6666 20C36.6666 29.205 29.205 36.6667 20 36.6667ZM14.8166 21.95L14.8383 21.9383L16.2883 26.7217C16.475 27.24 16.7316 27.3333 17.0433 27.29C17.3566 27.2483 17.5216 27.08 17.7266 26.8833L19.7066 24.97L23.9566 28.1167C24.7333 28.545 25.2916 28.3233 25.485 27.3967L28.2466 14.36C28.5516 13.1467 28.0183 12.66 27.0766 13.0467L10.855 19.3133C9.74831 19.7567 9.75498 20.3767 10.655 20.6517L14.8166 21.9517V21.95Z" fill="#1C645B"/>
</svg>
