<svg width="34" height="34" viewBox="0 0 34 34" fill="none" xmlns="http://www.w3.org/2000/svg">
<path d="M17 33.6667C7.79498 33.6667 0.333313 26.205 0.333313 17C0.333313 7.79501 7.79498 0.333344 17 0.333344C26.205 0.333344 33.6666 7.79501 33.6666 17C33.6666 26.205 26.205 33.6667 17 33.6667ZM11.8166 18.95L11.8383 18.9383L13.2883 23.7217C13.475 24.24 13.7316 24.3333 14.0433 24.29C14.3566 24.2483 14.5216 24.08 14.7266 23.8833L16.7066 21.97L20.9566 25.1167C21.7333 25.545 22.2916 25.3233 22.485 24.3967L25.2466 11.36C25.5516 10.1467 25.0183 9.66001 24.0766 10.0467L7.85498 16.3133C6.74831 16.7567 6.75498 17.3767 7.65498 17.6517L11.8166 18.9517V18.95Z" fill="#1C645B"/>
</svg>
