<svg width="115" height="115" viewBox="0 0 115 115" fill="none" xmlns="http://www.w3.org/2000/svg">
<circle cx="57.5" cy="57.5" r="57.5" fill="#FBE335"/>
<circle cx="57.5" cy="57.5" r="57" stroke="black" stroke-opacity="0.35"/>
<circle cx="58" cy="57" r="50" fill="#16A0EE"/>
<path d="M38.0059 70H13.4492V63.4902C16.1419 62.459 18.4479 61.1556 20.3672 59.5801C21.513 58.5918 22.4368 57.6966 23.1387 56.8945C23.8405 56.0924 24.349 55.276 24.6641 54.4453C24.9935 53.6146 25.1582 52.6693 25.1582 51.6094C25.1582 50.5781 24.8646 49.7044 24.2773 48.9883C23.6901 48.2721 22.9883 47.9141 22.1719 47.9141C21.2552 47.9141 20.5462 48.2005 20.0449 48.7734C19.5436 49.3464 19.293 50.0697 19.293 50.9434C19.293 51.4447 19.4219 51.9531 19.6797 52.4688C19.9518 52.9844 20.2669 53.4141 20.625 53.7578L15.791 57.4961C14.7884 56.6224 13.9863 55.4622 13.3848 54.0156C12.7832 52.5547 12.5111 51.1224 12.5684 49.7188C12.5397 47.9284 13.0339 46.3314 14.0508 44.9277C15.0677 43.5241 16.4857 42.4355 18.3047 41.6621C20.138 40.8743 22.2292 40.4805 24.5781 40.4805C26.8268 40.4805 28.8177 40.8887 30.5508 41.7051C32.2982 42.5215 33.6589 43.6745 34.6328 45.1641C35.6211 46.6393 36.1152 48.3151 36.1152 50.1914C36.1152 51.9531 35.6068 53.6217 34.5898 55.1973C33.5729 56.7871 32.4414 58.1263 31.1953 59.2148C29.9492 60.3034 28.5241 61.4349 26.9199 62.6094L26.082 63.1895H29.5625C30.9661 63.1608 32.0833 62.9388 32.9141 62.5234C33.7591 62.1081 34.1816 61.2702 34.1816 60.0098H37.877L38.0059 70ZM53.6016 70H40.6816V63.8125H43.4941V48.2207H40.6816V42.0332H53.6367C58.7227 42.0332 62.6133 43.2109 65.3086 45.5664C68.0156 47.9102 69.3691 51.3848 69.3691 55.9902C69.3691 60.4785 68.0273 63.9355 65.3438 66.3613C62.6602 68.7871 58.7461 70 53.6016 70ZM52.4941 48.2207V63.8125H53.6016C54.9141 63.8125 55.9863 63.4785 56.8184 62.8105C57.6504 62.1309 58.2656 61.1992 58.6641 60.0156C59.0625 58.832 59.2617 57.4902 59.2617 55.9902C59.2617 53.6934 58.8164 51.8242 57.9258 50.3828C57.0352 48.9414 55.5938 48.2207 53.6016 48.2207H52.4941ZM83.4492 63.8125V70H71.1094V63.8125H73.8867L78.7031 48.2207H75.0293V42.0332H92.4492L98.6895 63.8125H101.449V70H85.7168V63.8125H88.002L87.2461 60.8242H80.9004L80.1094 63.8125H83.4492ZM86.4023 56.5703L84.3633 48.0098L81.7969 56.5703H86.4023Z" fill="#FBE335"/>
<path d="M38.0059 70V71H39.0188L39.0058 69.9871L38.0059 70ZM13.4492 70H12.4492V71H13.4492V70ZM13.4492 63.4902L13.0916 62.5564L12.4492 62.8024V63.4902H13.4492ZM20.3672 59.5801L21.0017 60.353L21.0111 60.3453L21.0203 60.3373L20.3672 59.5801ZM24.6641 54.4453L23.7345 54.0767L23.7317 54.0837L23.7291 54.0907L24.6641 54.4453ZM19.6797 52.4688L18.7853 52.916L18.7902 52.9258L18.7953 52.9355L19.6797 52.4688ZM20.625 53.7578L21.2367 54.5489L22.1541 53.8395L21.3175 53.0364L20.625 53.7578ZM15.791 57.4961L15.134 58.25L15.7531 58.7895L16.4028 58.2871L15.791 57.4961ZM13.3848 54.0156L12.4601 54.3964L12.4614 54.3996L13.3848 54.0156ZM12.5684 49.7188L13.5675 49.7595L13.5687 49.7312L13.5682 49.7028L12.5684 49.7188ZM14.0508 44.9277L13.241 44.341L14.0508 44.9277ZM18.3047 41.6621L18.696 42.5824L18.6995 42.5809L18.3047 41.6621ZM30.5508 41.7051L30.1246 42.6097L30.1275 42.6111L30.5508 41.7051ZM34.6328 45.1641L33.7958 45.7113L33.802 45.7206L34.6328 45.1641ZM34.5898 55.1973L33.7497 54.655L33.7474 54.6584L34.5898 55.1973ZM31.1953 59.2148L30.5374 58.4617L31.1953 59.2148ZM26.9199 62.6094L27.4891 63.4316L27.5 63.424L27.5107 63.4162L26.9199 62.6094ZM26.082 63.1895L25.5128 62.3673L22.8808 64.1895H26.082V63.1895ZM29.5625 63.1895V64.1895H29.5727L29.5829 64.1892L29.5625 63.1895ZM32.9141 62.5234L32.4729 61.626L32.4668 61.629L32.9141 62.5234ZM34.1816 60.0098V59.0098H33.1816V60.0098H34.1816ZM37.877 60.0098L38.8769 59.9969L38.8641 59.0098H37.877V60.0098ZM38.0059 69H13.4492V71H38.0059V69ZM14.4492 70V63.4902H12.4492V70H14.4492ZM13.8069 64.4241C16.5841 63.3605 18.9872 62.0067 21.0017 60.353L19.7327 58.8071C17.9086 60.3045 15.6998 61.5575 13.0916 62.5564L13.8069 64.4241ZM21.0203 60.3373C22.1882 59.3301 23.1488 58.4015 23.8912 57.553L22.3861 56.236C21.7249 56.9917 20.8379 57.8535 19.7141 58.8228L21.0203 60.3373ZM23.8912 57.553C24.6563 56.6787 25.2342 55.7618 25.5991 54.8L23.7291 54.0907C23.4637 54.7903 23.0247 55.5061 22.3861 56.236L23.8912 57.553ZM25.5936 54.8139C25.9774 53.8462 26.1582 52.7725 26.1582 51.6094H24.1582C24.1582 52.5661 24.0096 53.3829 23.7345 54.0767L25.5936 54.8139ZM26.1582 51.6094C26.1582 50.3748 25.8012 49.2696 25.0506 48.3542L23.5041 49.6224C23.9279 50.1393 24.1582 50.7814 24.1582 51.6094H26.1582ZM25.0506 48.3542C24.3022 47.4415 23.3304 46.9141 22.1719 46.9141V48.9141C22.6462 48.9141 23.078 49.1028 23.5041 49.6224L25.0506 48.3542ZM22.1719 46.9141C21.0312 46.9141 20.0221 47.2809 19.2923 48.1149L20.7975 49.4319C21.0703 49.1202 21.4792 48.9141 22.1719 48.9141V46.9141ZM19.2923 48.1149C18.6081 48.8969 18.293 49.8655 18.293 50.9434H20.293C20.293 50.2738 20.4791 49.7958 20.7975 49.4319L19.2923 48.1149ZM18.293 50.9434C18.293 51.6217 18.4685 52.2824 18.7853 52.916L20.5741 52.0215C20.3753 51.6239 20.293 51.2676 20.293 50.9434H18.293ZM18.7953 52.9355C19.1089 53.5296 19.4851 54.0497 19.9325 54.4792L21.3175 53.0364C21.0487 52.7784 20.7948 52.4391 20.5641 52.002L18.7953 52.9355ZM20.0133 52.9668L15.1793 56.705L16.4028 58.2871L21.2367 54.5489L20.0133 52.9668ZM16.448 56.7422C15.5804 55.9862 14.861 54.9613 14.3081 53.6317L12.4614 54.3996C13.1116 55.9632 13.9964 57.2586 15.134 58.25L16.448 56.7422ZM14.3094 53.6349C13.756 52.2907 13.5168 51.0019 13.5675 49.7595L11.5692 49.678C11.5053 51.2429 11.8104 52.8187 12.4601 54.3964L14.3094 53.6349ZM13.5682 49.7028C13.5429 48.1209 13.9749 46.7369 14.8606 45.5144L13.241 44.341C12.0928 45.9259 11.5365 47.7359 11.5685 49.7347L13.5682 49.7028ZM14.8606 45.5144C15.7566 44.2777 17.0202 43.2949 18.696 42.5824L17.9134 40.7418C15.9511 41.5762 14.3788 42.7705 13.241 44.341L14.8606 45.5144ZM18.6995 42.5809C20.388 41.8553 22.3412 41.4805 24.5781 41.4805V39.4805C22.1171 39.4805 19.888 39.8934 17.9099 40.7433L18.6995 42.5809ZM24.5781 41.4805C26.7049 41.4805 28.5461 41.8661 30.1246 42.6097L30.9769 40.8004C29.0893 39.9112 26.9488 39.4805 24.5781 39.4805V41.4805ZM30.1275 42.6111C31.721 43.3556 32.9322 44.3905 33.7958 45.7113L35.4698 44.6168C34.3855 42.9585 32.8754 41.6874 30.9741 40.7991L30.1275 42.6111ZM33.802 45.7206C34.6736 47.0217 35.1152 48.5015 35.1152 50.1914H37.1152C37.1152 48.1287 36.5686 46.257 35.4636 44.6075L33.802 45.7206ZM35.1152 50.1914C35.1152 51.7482 34.6693 53.2302 33.7497 54.655L35.43 55.7396C36.5442 54.0133 37.1152 52.1581 37.1152 50.1914H35.1152ZM33.7474 54.6584C32.7745 56.1795 31.703 57.4436 30.5374 58.4617L31.8532 59.968C33.1798 58.8091 34.3713 57.3948 35.4323 55.7361L33.7474 54.6584ZM30.5374 58.4617C29.3167 59.5281 27.9146 60.6417 26.3292 61.8025L27.5107 63.4162C29.1335 62.2281 30.5817 61.0787 31.8532 59.968L30.5374 58.4617ZM26.3507 61.7872L25.5128 62.3673L26.6512 64.0116L27.4891 63.4316L26.3507 61.7872ZM26.082 64.1895H29.5625V62.1895H26.082V64.1895ZM29.5829 64.1892C31.0658 64.159 32.3475 63.9247 33.3613 63.4179L32.4668 61.629C31.8192 61.9529 30.8664 62.1626 29.5421 62.1897L29.5829 64.1892ZM33.3552 63.4209C34.6598 62.7796 35.1816 61.5002 35.1816 60.0098H33.1816C33.1816 61.0402 32.8584 61.4365 32.4729 61.626L33.3552 63.4209ZM34.1816 61.0098H37.877V59.0098H34.1816V61.0098ZM36.877 60.0227L37.0059 70.0129L39.0058 69.9871L38.8769 59.9969L36.877 60.0227ZM40.6816 70H39.6816V71H40.6816V70ZM40.6816 63.8125V62.8125H39.6816V63.8125H40.6816ZM43.4941 63.8125V64.8125H44.4941V63.8125H43.4941ZM43.4941 48.2207H44.4941V47.2207H43.4941V48.2207ZM40.6816 48.2207H39.6816V49.2207H40.6816V48.2207ZM40.6816 42.0332V41.0332H39.6816V42.0332H40.6816ZM65.3086 45.5664L64.6505 46.3194L64.654 46.3224L65.3086 45.5664ZM52.4941 48.2207V47.2207H51.4941V48.2207H52.4941ZM52.4941 63.8125H51.4941V64.8125H52.4941V63.8125ZM56.8184 62.8105L57.4444 63.5904L57.451 63.585L56.8184 62.8105ZM53.6016 69H40.6816V71H53.6016V69ZM41.6816 70V63.8125H39.6816V70H41.6816ZM40.6816 64.8125H43.4941V62.8125H40.6816V64.8125ZM44.4941 63.8125V48.2207H42.4941V63.8125H44.4941ZM43.4941 47.2207H40.6816V49.2207H43.4941V47.2207ZM41.6816 48.2207V42.0332H39.6816V48.2207H41.6816ZM40.6816 43.0332H53.6367V41.0332H40.6816V43.0332ZM53.6367 43.0332C58.5814 43.0332 62.2012 44.1789 64.6506 46.3194L65.9666 44.8134C63.0253 42.243 58.8639 41.0332 53.6367 41.0332V43.0332ZM64.654 46.3224C67.0823 48.4249 68.3691 51.586 68.3691 55.9902H70.3691C70.3691 51.1835 68.9489 47.3955 65.9632 44.8104L64.654 46.3224ZM68.3691 55.9902C68.3691 60.269 67.0982 63.4274 64.6732 65.6195L66.0143 67.1032C68.9565 64.4437 70.3691 60.688 70.3691 55.9902H68.3691ZM64.6732 65.6195C62.2382 67.8206 58.6023 69 53.6016 69V71C58.8899 71 63.0821 69.7537 66.0143 67.1032L64.6732 65.6195ZM51.4941 48.2207V63.8125H53.4941V48.2207H51.4941ZM52.4941 64.8125H53.6016V62.8125H52.4941V64.8125ZM53.6016 64.8125C55.0878 64.8125 56.3969 64.4313 57.4444 63.5903L56.1923 62.0308C55.5757 62.5258 54.7403 62.8125 53.6016 62.8125V64.8125ZM57.451 63.585C58.4512 62.7679 59.1632 61.6672 59.6118 60.3347L57.7163 59.6966C57.368 60.7313 56.8496 61.4938 56.1857 62.0361L57.451 63.585ZM59.6118 60.3347C60.051 59.03 60.2617 57.5776 60.2617 55.9902H58.2617C58.2617 57.4029 58.074 58.6341 57.7163 59.6966L59.6118 60.3347ZM60.2617 55.9902C60.2617 53.5715 59.7936 51.5032 58.7765 49.8572L57.0751 50.9085C57.8392 52.1452 58.2617 53.8152 58.2617 55.9902H60.2617ZM58.7765 49.8572C57.669 48.0648 55.8689 47.2207 53.6016 47.2207V49.2207C55.3186 49.2207 56.4013 49.818 57.0751 50.9085L58.7765 49.8572ZM53.6016 47.2207H52.4941V49.2207H53.6016V47.2207ZM83.4492 63.8125H84.4492V62.8125H83.4492V63.8125ZM83.4492 70V71H84.4492V70H83.4492ZM71.1094 70H70.1094V71H71.1094V70ZM71.1094 63.8125V62.8125H70.1094V63.8125H71.1094ZM73.8867 63.8125V64.8125H74.6244L74.8422 64.1076L73.8867 63.8125ZM78.7031 48.2207L79.6586 48.5158L80.0587 47.2207H78.7031V48.2207ZM75.0293 48.2207H74.0293V49.2207H75.0293V48.2207ZM75.0293 42.0332V41.0332H74.0293V42.0332H75.0293ZM92.4492 42.0332L93.4105 41.7578L93.2029 41.0332H92.4492V42.0332ZM98.6895 63.8125L97.7281 64.0879L97.9357 64.8125H98.6895V63.8125ZM101.449 63.8125H102.449V62.8125H101.449V63.8125ZM101.449 70V71H102.449V70H101.449ZM85.7168 70H84.7168V71H85.7168V70ZM85.7168 63.8125V62.8125H84.7168V63.8125H85.7168ZM88.002 63.8125V64.8125H89.2864L88.9714 63.5673L88.002 63.8125ZM87.2461 60.8242L88.2156 60.579L88.0246 59.8242H87.2461V60.8242ZM80.9004 60.8242V59.8242H80.1307L79.9337 60.5683L80.9004 60.8242ZM80.1094 63.8125L79.1427 63.5566L78.8102 64.8125H80.1094V63.8125ZM86.4023 56.5703V57.5703H87.6685L87.3751 56.3386L86.4023 56.5703ZM84.3633 48.0098L85.3361 47.7781L84.4739 44.1585L83.4054 47.7226L84.3633 48.0098ZM81.7969 56.5703L80.839 56.2831L80.4531 57.5703H81.7969V56.5703ZM82.4492 63.8125V70H84.4492V63.8125H82.4492ZM83.4492 69H71.1094V71H83.4492V69ZM72.1094 70V63.8125H70.1094V70H72.1094ZM71.1094 64.8125H73.8867V62.8125H71.1094V64.8125ZM74.8422 64.1076L79.6586 48.5158L77.7477 47.9256L72.9313 63.5174L74.8422 64.1076ZM78.7031 47.2207H75.0293V49.2207H78.7031V47.2207ZM76.0293 48.2207V42.0332H74.0293V48.2207H76.0293ZM75.0293 43.0332H92.4492V41.0332H75.0293V43.0332ZM91.4879 42.3086L97.7281 64.0879L99.6508 63.5371L93.4105 41.7578L91.4879 42.3086ZM98.6895 64.8125H101.449V62.8125H98.6895V64.8125ZM100.449 63.8125V70H102.449V63.8125H100.449ZM101.449 69H85.7168V71H101.449V69ZM86.7168 70V63.8125H84.7168V70H86.7168ZM85.7168 64.8125H88.002V62.8125H85.7168V64.8125ZM88.9714 63.5673L88.2156 60.579L86.2766 61.0694L87.0325 64.0577L88.9714 63.5673ZM87.2461 59.8242H80.9004V61.8242H87.2461V59.8242ZM79.9337 60.5683L79.1427 63.5566L81.0761 64.0684L81.8671 61.0801L79.9337 60.5683ZM80.1094 64.8125H83.4492V62.8125H80.1094V64.8125ZM87.3751 56.3386L85.3361 47.7781L83.3905 48.2415L85.4296 56.802L87.3751 56.3386ZM83.4054 47.7226L80.839 56.2831L82.7548 56.8575L85.3212 48.2969L83.4054 47.7226ZM81.7969 57.5703H86.4023V55.5703H81.7969V57.5703Z" fill="black" fill-opacity="0.1"/>
</svg>
