<svg width="280" height="40" viewBox="0 0 280 40" fill="none" xmlns="http://www.w3.org/2000/svg">
<g filter="url(#filter0_i_21_111)">
<path d="M20 36.6667C10.795 36.6667 3.33331 29.205 3.33331 20C3.33331 10.795 10.795 3.33334 20 3.33334C29.205 3.33334 36.6666 10.795 36.6666 20C36.6666 29.205 29.205 36.6667 20 36.6667ZM14.8166 21.95L14.8383 21.9383L16.2883 26.7217C16.475 27.24 16.7316 27.3333 17.0433 27.29C17.3566 27.2483 17.5216 27.08 17.7266 26.8833L19.7066 24.97L23.9566 28.1167C24.7333 28.545 25.2916 28.3233 25.485 27.3967L28.2466 14.36C28.5516 13.1467 28.0183 12.66 27.0766 13.0467L10.855 19.3133C9.74831 19.7567 9.75498 20.3767 10.655 20.6517L14.8166 21.9517V21.95Z" fill="#1C645B"/>
<path d="M80 3.33334C70.795 3.33334 63.3333 10.795 63.3333 20C63.3333 28.3183 69.4283 35.2133 77.3966 36.465V24.8167H73.1633V20H77.3966V16.3283C77.3966 12.1517 79.8833 9.84501 83.6916 9.84501C85.515 9.84501 87.4216 10.17 87.4216 10.17V14.27H85.3216C83.25 14.27 82.605 15.555 82.605 16.8733V20H87.2266L86.4883 24.8167H82.605V36.465C90.5716 35.215 96.6666 28.3167 96.6666 20C96.6666 10.795 89.205 3.33334 80 3.33334Z" fill="#1C645B"/>
<path d="M216.937 9.42667C215.664 9.98949 214.315 10.3591 212.933 10.5233C214.39 9.65239 215.48 8.28169 216 6.66667C214.633 7.48 213.135 8.05 211.573 8.35833C210.524 7.23596 209.134 6.49161 207.618 6.24097C206.103 5.99034 204.547 6.24748 203.192 6.97242C201.838 7.69736 200.761 8.84947 200.129 10.2497C199.496 11.6498 199.345 13.2196 199.697 14.715C196.925 14.5761 194.214 13.8559 191.739 12.6011C189.264 11.3463 187.08 9.58508 185.33 7.43167C184.711 8.49575 184.385 9.70538 184.387 10.9367C184.387 13.3533 185.617 15.4883 187.487 16.7383C186.38 16.7035 185.298 16.4046 184.33 15.8667V15.9533C184.33 17.5628 184.887 19.1227 185.906 20.3684C186.926 21.6142 188.344 22.4691 189.922 22.7883C188.894 23.0667 187.817 23.1078 186.772 22.9083C187.216 24.2937 188.083 25.5053 189.251 26.3735C190.419 27.2417 191.829 27.723 193.283 27.75C191.837 28.8855 190.182 29.725 188.411 30.2203C186.641 30.7156 184.79 30.8571 182.965 30.6367C186.151 32.6857 189.86 33.7735 193.648 33.77C206.47 33.77 213.482 23.1483 213.482 13.9367C213.482 13.6367 213.473 13.3333 213.46 13.0367C214.825 12.0503 216.003 10.8284 216.938 9.42833L216.937 9.42667Z" fill="#1C645B"/>
<path d="M140 3.33334C144.528 3.33334 145.093 3.35001 146.87 3.43334C148.645 3.51668 149.853 3.79501 150.917 4.20834C152.017 4.63168 152.943 5.20501 153.87 6.13001C154.717 6.96317 155.373 7.97099 155.792 9.08334C156.203 10.145 156.483 11.355 156.567 13.13C156.645 14.9067 156.667 15.4717 156.667 20C156.667 24.5283 156.65 25.0933 156.567 26.87C156.483 28.645 156.203 29.8533 155.792 30.9167C155.374 32.0296 154.719 33.0377 153.87 33.87C153.037 34.7172 152.029 35.3729 150.917 35.7917C149.855 36.2033 148.645 36.4833 146.87 36.5667C145.093 36.645 144.528 36.6667 140 36.6667C135.472 36.6667 134.907 36.65 133.13 36.5667C131.355 36.4833 130.147 36.2033 129.083 35.7917C127.971 35.3741 126.963 34.7183 126.13 33.87C125.282 33.037 124.627 32.0291 124.208 30.9167C123.795 29.855 123.517 28.645 123.433 26.87C123.355 25.0933 123.333 24.5283 123.333 20C123.333 15.4717 123.35 14.9067 123.433 13.13C123.517 11.3533 123.795 10.1467 124.208 9.08334C124.625 7.97031 125.281 6.96221 126.13 6.13001C126.963 5.28206 127.971 4.62623 129.083 4.20834C130.147 3.79501 131.353 3.51668 133.13 3.43334C134.907 3.35501 135.472 3.33334 140 3.33334ZM140 11.6667C137.79 11.6667 135.67 12.5447 134.107 14.1075C132.545 15.6703 131.667 17.7899 131.667 20C131.667 22.2101 132.545 24.3298 134.107 25.8926C135.67 27.4554 137.79 28.3333 140 28.3333C142.21 28.3333 144.33 27.4554 145.893 25.8926C147.455 24.3298 148.333 22.2101 148.333 20C148.333 17.7899 147.455 15.6703 145.893 14.1075C144.33 12.5447 142.21 11.6667 140 11.6667V11.6667ZM150.833 11.25C150.833 10.6975 150.614 10.1676 150.223 9.77687C149.832 9.38617 149.303 9.16668 148.75 9.16668C148.197 9.16668 147.668 9.38617 147.277 9.77687C146.886 10.1676 146.667 10.6975 146.667 11.25C146.667 11.8025 146.886 12.3324 147.277 12.7231C147.668 13.1139 148.197 13.3333 148.75 13.3333C149.303 13.3333 149.832 13.1139 150.223 12.7231C150.614 12.3324 150.833 11.8025 150.833 11.25ZM140 15C141.326 15 142.598 15.5268 143.536 16.4645C144.473 17.4022 145 18.6739 145 20C145 21.3261 144.473 22.5979 143.536 23.5355C142.598 24.4732 141.326 25 140 25C138.674 25 137.402 24.4732 136.464 23.5355C135.527 22.5979 135 21.3261 135 20C135 18.6739 135.527 17.4022 136.464 16.4645C137.402 15.5268 138.674 15 140 15V15Z" fill="#1C645B"/>
<path d="M245 5H275C275.442 5 275.866 5.17559 276.179 5.48816C276.491 5.80072 276.667 6.22464 276.667 6.66667V33.3333C276.667 33.7754 276.491 34.1993 276.179 34.5118C275.866 34.8244 275.442 35 275 35H245C244.558 35 244.134 34.8244 243.822 34.5118C243.509 34.1993 243.333 33.7754 243.333 33.3333V6.66667C243.333 6.22464 243.509 5.80072 243.822 5.48816C244.134 5.17559 244.558 5 245 5V5ZM260.1 19.4717L249.413 10.3967L247.255 12.9367L260.122 23.8617L272.757 12.9283L270.577 10.4067L260.102 19.4717H260.1Z" fill="#1C645B"/>
</g>
<defs>
<filter id="filter0_i_21_111" x="0" y="0" width="280" height="44" filterUnits="userSpaceOnUse" color-interpolation-filters="sRGB">
<feFlood flood-opacity="0" result="BackgroundImageFix"/>
<feBlend mode="normal" in="SourceGraphic" in2="BackgroundImageFix" result="shape"/>
<feColorMatrix in="SourceAlpha" type="matrix" values="0 0 0 0 0 0 0 0 0 0 0 0 0 0 0 0 0 0 127 0" result="hardAlpha"/>
<feOffset dy="4"/>
<feGaussianBlur stdDeviation="2"/>
<feComposite in2="hardAlpha" operator="arithmetic" k2="-1" k3="1"/>
<feColorMatrix type="matrix" values="0 0 0 0 0 0 0 0 0 0 0 0 0 0 0 0 0 0 0.25 0"/>
<feBlend mode="normal" in2="shape" result="effect1_innerShadow_21_111"/>
</filter>
</defs>
</svg>
