<svg width="40" height="40" viewBox="0 0 40 40" fill="none" xmlns="http://www.w3.org/2000/svg">
<g filter="url(#filter0_i_21_106)">
<path d="M5.00004 5H35C35.4421 5 35.866 5.17559 36.1786 5.48816C36.4911 5.80072 36.6667 6.22464 36.6667 6.66667V33.3333C36.6667 33.7754 36.4911 34.1993 36.1786 34.5118C35.866 34.8244 35.4421 35 35 35H5.00004C4.55801 35 4.13409 34.8244 3.82153 34.5118C3.50897 34.1993 3.33337 33.7754 3.33337 33.3333V6.66667C3.33337 6.22464 3.50897 5.80072 3.82153 5.48816C4.13409 5.17559 4.55801 5 5.00004 5V5ZM20.1 19.4717L9.41337 10.3967L7.25504 12.9367L20.1217 23.8617L32.7567 12.9283L30.5767 10.4067L20.1017 19.4717H20.1Z" fill="#16A0EE"/>
</g>
<defs>
<filter id="filter0_i_21_106" x="3.33337" y="5" width="33.3334" height="34" filterUnits="userSpaceOnUse" color-interpolation-filters="sRGB">
<feFlood flood-opacity="0" result="BackgroundImageFix"/>
<feBlend mode="normal" in="SourceGraphic" in2="BackgroundImageFix" result="shape"/>
<feColorMatrix in="SourceAlpha" type="matrix" values="0 0 0 0 0 0 0 0 0 0 0 0 0 0 0 0 0 0 127 0" result="hardAlpha"/>
<feOffset dy="4"/>
<feGaussianBlur stdDeviation="2"/>
<feComposite in2="hardAlpha" operator="arithmetic" k2="-1" k3="1"/>
<feColorMatrix type="matrix" values="0 0 0 0 0 0 0 0 0 0 0 0 0 0 0 0 0 0 0.35 0"/>
<feBlend mode="normal" in2="shape" result="effect1_innerShadow_21_106"/>
</filter>
</defs>
</svg>
