<svg width="40" height="40" viewBox="0 0 40 40" fill="none" xmlns="http://www.w3.org/2000/svg">
<path d="M36.9367 9.42667C35.6643 9.98949 34.315 10.3591 32.9334 10.5233C34.3896 9.65239 35.4795 8.28169 36 6.66667C34.6334 7.48 33.135 8.05 31.5734 8.35833C30.5244 7.23596 29.134 6.49161 27.6183 6.24097C26.1026 5.99034 24.5466 6.24748 23.1921 6.97242C21.8377 7.69736 20.7607 8.84947 20.1285 10.2497C19.4964 11.6498 19.3446 13.2196 19.6967 14.715C16.9252 14.5761 14.2139 13.8559 11.7388 12.6011C9.26376 11.3463 7.08024 9.58508 5.33003 7.43167C4.71051 8.49575 4.38495 9.70538 4.38669 10.9367C4.38669 13.3533 5.61669 15.4883 7.48669 16.7383C6.38004 16.7035 5.29775 16.4046 4.33003 15.8667V15.9533C4.33036 17.5628 4.88731 19.1227 5.90644 20.3684C6.92557 21.6142 8.34416 22.4691 9.92169 22.7883C8.89438 23.0667 7.8172 23.1078 6.77169 22.9083C7.21647 24.2937 8.08337 25.5053 9.25101 26.3735C10.4187 27.2417 11.8286 27.723 13.2834 27.75C11.8375 28.8855 10.182 29.725 8.41149 30.2203C6.641 30.7156 4.79024 30.8571 2.96503 30.6367C6.15119 32.6857 9.86019 33.7735 13.6484 33.77C26.47 33.77 33.4817 23.1483 33.4817 13.9367C33.4817 13.6367 33.4734 13.3333 33.46 13.0367C34.8248 12.0503 36.0027 10.8284 36.9384 9.42833L36.9367 9.42667Z" fill="#1C645B"/>
</svg>
